<svg width="62" height="62" viewBox="0 0 62 62" fill="none" xmlns="http://www.w3.org/2000/svg">
<rect x="7.5" y="7.5" width="53" height="53" stroke="#333333" stroke-width="3"/>
<rect x="1.5" y="1.5" width="53" height="53" fill="white" stroke="#333333" stroke-width="3"/>
<path d="M14.0742 18.852H19.9242C22.3682 18.852 24.1795 19.632 25.3582 21.192C26.5368 22.752 27.1262 24.9967 27.1262 27.926C27.1262 30.8553 26.5368 33.1 25.3582 34.66C24.1795 36.22 22.3682 37 19.9242 37H14.0742V18.852ZM19.6642 33.932C20.8255 33.932 21.6748 33.5593 22.2122 32.814C22.7495 32.0687 23.0182 30.9853 23.0182 29.564V26.262C23.0182 24.858 22.7495 23.7833 22.2122 23.038C21.6748 22.2927 20.8255 21.92 19.6642 21.92H17.9222V33.932H19.6642ZM38.686 34.426H38.452C38.296 34.8073 38.1053 35.1713 37.88 35.518C37.6547 35.8647 37.3773 36.1767 37.048 36.454C36.7187 36.714 36.3287 36.922 35.878 37.078C35.4447 37.234 34.9507 37.312 34.396 37.312C33.512 37.312 32.7233 37.104 32.03 36.688C31.354 36.272 30.782 35.6653 30.314 34.868C29.846 34.0707 29.4907 33.1 29.248 31.956C29.0227 30.812 28.91 29.5207 28.91 28.082C28.91 24.9967 29.4733 22.6393 30.6 21.01C31.7267 19.3633 33.4687 18.54 35.826 18.54C36.762 18.54 37.5853 18.67 38.296 18.93C39.0067 19.1727 39.6133 19.528 40.116 19.996C40.636 20.4467 41.0607 20.9927 41.39 21.634C41.7193 22.2753 41.9793 22.986 42.17 23.766L38.53 24.65C38.426 24.2687 38.3047 23.9047 38.166 23.558C38.0447 23.194 37.88 22.8733 37.672 22.596C37.464 22.3187 37.204 22.102 36.892 21.946C36.58 21.7727 36.1987 21.686 35.748 21.686C34.76 21.686 34.058 22.0933 33.642 22.908C33.2433 23.7227 33.044 24.8667 33.044 26.34V29.304C33.044 30.7773 33.2607 31.956 33.694 32.84C34.1447 33.724 34.9333 34.166 36.06 34.166C36.944 34.166 37.6027 33.906 38.036 33.386C38.4693 32.866 38.686 32.1987 38.686 31.384V30.058H35.592V27.302H42.17V37H38.686V34.426Z" fill="#333333"/>
</svg>